<?xml version="1.0" encoding="UTF-8"?>
<svg xmlns="http://www.w3.org/2000/svg" xmlns:xlink="http://www.w3.org/1999/xlink" width="30pt" height="30pt" viewBox="0 0 30 30" version="1.1">
<g id="surface1">
<path style=" stroke:none;fill-rule:nonzero;fill:#5B5B5B;fill-opacity:1;" d="M 13.011719 1.984375 C 12.710938 1.984375 12.425781 2.113281 12.230469 2.34375 C 12.039063 2.574219 11.960938 2.878906 12.015625 3.171875 C 12.902344 8.277344 15.765625 11.617188 16.949219 12.824219 C 16.773438 12.972656 16.585938 13.113281 16.363281 13.234375 C 12.148438 11.46875 10.117188 6.605469 9.359375 4.277344 C 9.125 3.542969 8.242188 3.230469 7.597656 3.65625 C 6.816406 4.167969 6 5.015625 6 6.328125 C 6 7.671875 6.292969 8.460938 6.292969 8.460938 C 6.292969 8.460938 5 9.332031 5 11.296875 C 5 14.011719 7.550781 15 7.550781 15 C 7.550781 15 7.296875 18.90625 11.351563 19.457031 L 7 24.734375 C 7 24.734375 8.285156 27 11.746094 27 C 15.566406 27 17 25.542969 17 25.542969 L 16.042969 22.714844 C 16.921875 22.609375 23 22.335938 23 17.410156 C 23 15.070313 22.507813 13.144531 22.375 12 L 24.8125 11.59375 C 25.28125 11.515625 25.441406 10.925781 25.078125 10.617188 L 24 9.710938 C 24 9.234375 23.582031 7 21.492188 7 C 18.777344 7 18.808594 9.191406 18.070313 11.097656 C 16.894531 9.808594 14.699219 6.945313 13.984375 2.828125 C 13.90625 2.347656 13.496094 1.992188 13.011719 1.984375 Z "/>
</g>
</svg>
