<?xml version="1.0" encoding="UTF-8"?>
<svg xmlns="http://www.w3.org/2000/svg" xmlns:xlink="http://www.w3.org/1999/xlink" width="26pt" height="26pt" viewBox="0 0 26 26" version="1.1">
<g id="surface1">
<path style=" stroke:none;fill-rule:nonzero;fill:#FFFFFF;fill-opacity:1;" d="M 23.5 0.1875 C 22.222656 0.1875 21.1875 1.222656 21.1875 2.5 C 21.1875 2.542969 21.183594 2.582031 21.1875 2.625 C 18.652344 1.464844 14.238281 1.949219 10.125 6.0625 C 8.164063 8.023438 3.929688 7.574219 2.71875 8.78125 C 1.511719 9.988281 1.726563 13.976563 6.84375 19.09375 C 11.960938 24.210938 15.914063 24.402344 17.125 23.1875 C 18.339844 21.972656 17.980469 18.050781 20.09375 15.9375 C 24.117188 11.914063 24.480469 7.410156 23.3125 4.8125 C 23.375 4.816406 23.4375 4.8125 23.5 4.8125 C 24.777344 4.8125 25.8125 3.777344 25.8125 2.5 C 25.8125 1.222656 24.777344 0.1875 23.5 0.1875 Z M 23.5 1.34375 C 24.136719 1.34375 24.65625 1.863281 24.65625 2.5 C 24.65625 3.136719 24.136719 3.65625 23.5 3.65625 C 22.863281 3.65625 22.34375 3.136719 22.34375 2.5 C 22.34375 2.191406 22.46875 1.90625 22.6875 1.6875 C 22.90625 1.46875 23.191406 1.34375 23.5 1.34375 Z M 18.78125 4.15625 C 19.25 4.175781 19.761719 4.28125 20.3125 4.4375 C 17.199219 4.285156 13.230469 9.25 11.75 11.0625 C 10.695313 12.351563 8.929688 13.761719 6.71875 13.9375 C 4.90625 12.886719 5.03125 11.46875 5.03125 11.46875 C 5.03125 11.46875 7.515625 11.832031 10.84375 9.3125 C 13.933594 6.972656 15.492188 4.019531 18.78125 4.15625 Z M 8.15625 21.625 C 7.574219 22.046875 7.1875 22.726563 7.1875 23.5 C 7.1875 24.777344 8.222656 25.8125 9.5 25.8125 C 10.628906 25.8125 11.574219 25.003906 11.78125 23.9375 C 10.734375 23.460938 9.511719 22.726563 8.15625 21.625 Z "/>
</g>
</svg>
