<?xml version="1.0" encoding="UTF-8"?>
<svg xmlns="http://www.w3.org/2000/svg" xmlns:xlink="http://www.w3.org/1999/xlink" width="26pt" height="26pt" viewBox="0 0 26 26" version="1.1">
<g id="surface1">
<path style=" stroke:none;fill-rule:nonzero;fill:#FFFFFF;fill-opacity:1;" d="M 13 0 C 12.398438 0 12 0.398438 12 1 L 12 2.09375 C 9.167969 2.570313 7 5.035156 7 8 L 7 13 C 7 13.800781 2 17.800781 2 19 C 2 20.699219 6.398438 22 13 22 C 19.601563 22 24 20.699219 24 19 C 24 17.800781 19 13.800781 19 13 L 19 8 C 19 5.035156 16.832031 2.570313 14 2.09375 L 14 1 C 14 0.398438 13.601563 0 13 0 Z M 11.3125 23.09375 C 11.113281 23.394531 11 23.601563 11 24 C 11 25.101563 11.898438 26 13 26 C 14.101563 26 15 25.101563 15 24 C 15 23.601563 14.886719 23.394531 14.6875 23.09375 Z "/>
</g>
</svg>
