<?xml version="1.0" encoding="UTF-8"?>
<svg xmlns="http://www.w3.org/2000/svg" xmlns:xlink="http://www.w3.org/1999/xlink" width="26pt" height="26pt" viewBox="0 0 26 26" version="1.1">
<g id="surface1">
<path style=" stroke:none;fill-rule:nonzero;fill:#FFFFFF;fill-opacity:1;" d="M 13 0 C 11.90625 0 11.015625 0.878906 11 1.96875 L 7.34375 3.53125 C 6.988281 3.207031 6.519531 3 6 3 C 4.894531 3 4 3.894531 4 5 C 4 5.445313 4.160156 5.855469 4.40625 6.1875 L 2.21875 10.03125 C 2.144531 10.023438 2.074219 10 2 10 C 0.894531 10 0 10.894531 0 12 C 0 13.105469 0.894531 14 2 14 C 2.375 14 2.730469 13.898438 3.03125 13.71875 L 7.03125 16.59375 C 7.003906 16.722656 7 16.863281 7 17 C 7 18.105469 7.894531 19 9 19 C 9.074219 19 9.144531 18.976563 9.21875 18.96875 L 11.40625 22.8125 C 11.160156 23.144531 11 23.554688 11 24 C 11 25.105469 11.894531 26 13 26 C 14.105469 26 15 25.105469 15 24 C 15 23.96875 15 23.9375 15 23.90625 L 19.71875 21.53125 C 20.066406 21.820313 20.511719 22 21 22 C 22.105469 22 23 21.105469 23 20 C 23 19.429688 22.753906 18.925781 22.375 18.5625 L 24.09375 14 C 25.15625 13.949219 26 13.074219 26 12 C 26 10.894531 25.105469 10 24 10 C 23.96875 10 23.9375 10 23.90625 10 L 22.53125 7.28125 C 22.820313 6.933594 23 6.488281 23 6 C 23 4.894531 22.105469 4 21 4 C 20.511719 4 20.066406 4.179688 19.71875 4.46875 L 15 2.09375 C 15 2.0625 15 2.03125 15 2 C 15 0.894531 14.105469 0 13 0 Z M 11.65625 3.46875 C 12.011719 3.792969 12.480469 4 13 4 C 13.488281 4 13.933594 3.820313 14.28125 3.53125 L 19 5.90625 C 19 5.9375 19 5.96875 19 6 C 19 7.105469 19.894531 8 21 8 C 21.03125 8 21.0625 8 21.09375 8 L 22.46875 10.71875 C 22.179688 11.066406 22 11.511719 22 12 C 22 12.550781 22.230469 13.042969 22.59375 13.40625 L 20.875 18 C 19.828125 18.066406 19 18.9375 19 20 C 19 20.03125 19 20.0625 19 20.09375 L 14.25 22.46875 C 13.90625 22.1875 13.480469 22 13 22 C 12.925781 22 12.855469 22.023438 12.78125 22.03125 L 10.59375 18.1875 C 10.839844 17.855469 11 17.445313 11 17 C 11 15.894531 10.105469 15 9 15 C 8.636719 15 8.292969 15.109375 8 15.28125 L 3.96875 12.40625 C 3.996094 12.277344 4 12.136719 4 12 C 4 11.554688 3.839844 11.144531 3.59375 10.8125 L 5.8125 7 C 5.875 7.003906 5.9375 7 6 7 C 7.09375 7 7.984375 6.121094 8 5.03125 Z "/>
</g>
</svg>
