<?xml version="1.0" encoding="UTF-8"?>
<svg xmlns="http://www.w3.org/2000/svg" xmlns:xlink="http://www.w3.org/1999/xlink" width="50pt" height="50pt" viewBox="0 0 50 50" version="1.1">
<g id="surface1">
<path style=" stroke:none;fill-rule:nonzero;fill:#FFFFFF;fill-opacity:1;" d="M 11.90625 5.96875 C 11.863281 5.976563 11.820313 5.988281 11.78125 6 C 11.316406 6.105469 10.988281 6.523438 11 7 L 11 8 L 10 8 C 9.96875 8 9.9375 8 9.90625 8 C 9.355469 8.027344 8.925781 8.496094 8.953125 9.046875 C 8.980469 9.597656 9.449219 10.027344 10 10 L 11 10 L 11 11 C 10.996094 11.359375 11.183594 11.695313 11.496094 11.878906 C 11.808594 12.058594 12.191406 12.058594 12.503906 11.878906 C 12.816406 11.695313 13.003906 11.359375 13 11 L 13 10 L 14 10 C 14.359375 10.003906 14.695313 9.816406 14.878906 9.503906 C 15.058594 9.191406 15.058594 8.808594 14.878906 8.496094 C 14.695313 8.183594 14.359375 7.996094 14 8 L 13 8 L 13 7 C 13.011719 6.710938 12.894531 6.433594 12.6875 6.238281 C 12.476563 6.039063 12.191406 5.941406 11.90625 5.96875 Z M 36.15625 5.96875 L 34.84375 6.21875 C 31.179688 6.949219 28.070313 9.5625 26.75 13 C 26.734375 13.035156 26.558594 13.464844 26.375 14.25 C 30.140625 15.011719 33.351563 17.550781 34.9375 21.0625 C 35.292969 21.027344 35.640625 21 36 21 C 39.425781 21 42.480469 22.570313 44.5 25.03125 C 44.617188 24.921875 44.703125 24.859375 44.71875 24.84375 C 46.601563 22.988281 47.757813 20.503906 47.96875 17.875 L 48.0625 16.5625 L 46.75 16.8125 C 46.164063 16.929688 45.585938 17 45 17 C 40.035156 17 36 12.960938 36 8 C 36 7.753906 36.011719 7.519531 36.03125 7.28125 Z M 24 16 C 18.484375 16 14 20.484375 14 26 C 14 26.351563 14.023438 26.707031 14.0625 27.0625 C 10.644531 27.523438 8 30.460938 8 34 C 8 37.859375 11.140625 41 15 41 L 36 41 C 40.964844 41 45 36.964844 45 32 C 45 27.035156 40.964844 23 36 23 C 35.1875 23 34.394531 23.101563 33.625 23.3125 C 32.441406 19.007813 28.566406 16 24 16 Z M 3.90625 17.96875 C 3.863281 17.976563 3.820313 17.988281 3.78125 18 C 3.316406 18.105469 2.988281 18.523438 3 19 C 2.96875 19 2.9375 19 2.90625 19 C 2.355469 19.027344 1.925781 19.496094 1.953125 20.046875 C 1.980469 20.597656 2.449219 21.027344 3 21 C 2.996094 21.359375 3.183594 21.695313 3.496094 21.878906 C 3.808594 22.058594 4.191406 22.058594 4.503906 21.878906 C 4.816406 21.695313 5.003906 21.359375 5 21 C 5.359375 21.003906 5.695313 20.816406 5.878906 20.503906 C 6.058594 20.191406 6.058594 19.808594 5.878906 19.496094 C 5.695313 19.183594 5.359375 18.996094 5 19 C 5.011719 18.710938 4.894531 18.433594 4.6875 18.238281 C 4.476563 18.039063 4.191406 17.941406 3.90625 17.96875 Z "/>
</g>
</svg>
