<?xml version="1.0" encoding="UTF-8"?>
<svg xmlns="http://www.w3.org/2000/svg" xmlns:xlink="http://www.w3.org/1999/xlink" width="30pt" height="30pt" viewBox="0 0 30 30" version="1.1">
<g id="surface1">
<path style=" stroke:none;fill-rule:nonzero;fill:#5B5B5B;fill-opacity:1;" d="M 15 3 C 8.371094 3 3 8.371094 3 15 C 3 21.628906 8.371094 27 15 27 C 18.238281 27 21.164063 25.707031 23.316406 23.621094 C 23.605469 23.433594 23.777344 23.117188 23.777344 22.777344 C 23.777344 22.226563 23.328125 21.777344 22.777344 21.777344 C 22.515625 21.777344 22.261719 21.882813 22.078125 22.066406 L 22.070313 22.0625 C 20.261719 23.875 17.761719 25 15 25 C 8.335938 25 6.652344 20.207031 7.019531 16.035156 C 7.238281 13.570313 9.957031 12.648438 9.832031 14.574219 C 9.765625 14.722656 9.699219 14.871094 9.585938 15.113281 C 9.308594 15.738281 9 16.660156 9 18 C 8.996094 18.359375 9.183594 18.695313 9.496094 18.878906 C 9.808594 19.058594 10.191406 19.058594 10.503906 18.878906 C 10.816406 18.695313 11.003906 18.359375 11 18 C 11 17.863281 11.011719 17.757813 11.015625 17.640625 C 11.402344 17.867188 11.71875 17.960938 11.71875 17.960938 C 12.25 18.117188 12.808594 17.808594 12.960938 17.28125 C 13.117188 16.75 12.808594 16.191406 12.28125 16.039063 C 12.28125 16.039063 12.03125 15.949219 11.867188 15.796875 C 11.703125 15.640625 11.585938 15.660156 11.792969 15.117188 C 11.820313 15.046875 11.839844 14.972656 11.851563 14.894531 C 11.933594 14.632813 12 14.347656 12 14.003906 C 12 13.046875 11.484375 12.238281 10.871094 11.710938 C 10.335938 11.257813 9.722656 10.964844 9.117188 10.734375 C 9.371094 10.546875 9.65625 10.476563 10.042969 10.476563 C 11.535156 10.476563 11.84375 11 13 11 C 13.929688 11 14.628906 10.738281 15.265625 10.410156 C 15.105469 10.882813 15 11.40625 15 12 C 15 12.796875 15.226563 13.511719 15.519531 14.144531 C 15.546875 14.269531 15.59375 14.386719 15.660156 14.492188 C 15.675781 14.515625 15.683594 14.621094 15.5625 14.871094 C 15.4375 15.121094 15.261719 15.328125 15.261719 15.328125 C 14.886719 15.734375 14.917969 16.367188 15.324219 16.742188 C 15.734375 17.113281 16.367188 17.082031 16.738281 16.671875 C 16.738281 16.671875 16.847656 16.550781 16.984375 16.363281 C 17.152344 16.558594 17.292969 16.707031 17.292969 16.707031 C 17.542969 16.96875 17.917969 17.074219 18.265625 16.980469 C 18.617188 16.890625 18.890625 16.617188 18.980469 16.265625 C 19.074219 15.917969 18.96875 15.542969 18.707031 15.292969 C 18.707031 15.292969 18.273438 14.859375 17.832031 14.195313 C 17.390625 13.53125 17 12.667969 17 12 C 17 9.925781 18.75 9.167969 19.15625 9.015625 C 20.140625 9.09375 21 9.867188 21 10.910156 C 21 12.835938 21.589844 13.839844 22.042969 14.316406 C 22.878906 15.207031 23.929688 16 25.582031 16 C 26.527344 16 27 15.347656 27 14.601563 C 27 12.84375 27.101563 11.550781 26.253906 10.136719 C 25.613281 9.0625 24.320313 8.882813 23.636719 7.875 C 21.851563 5.246094 19.152344 3 15 3 Z "/>
</g>
</svg>
