<?xml version="1.0" encoding="UTF-8"?>
<svg xmlns="http://www.w3.org/2000/svg" xmlns:xlink="http://www.w3.org/1999/xlink" width="30pt" height="30pt" viewBox="0 0 30 30" version="1.1">
<g id="surface1">
<path style=" stroke:none;fill-rule:nonzero;fill:#5B5B5B;fill-opacity:1;" d="M 26.527344 16 C 24.011719 13.558594 23.296875 11.578125 23.136719 11.210938 C 23.09375 10.75 22.9375 9.605469 22.429688 9.105469 C 22.058594 8.738281 20.6875 7.566406 20 7 L 20 3.71875 C 20 3.359375 19.628906 3.109375 19.300781 3.257813 C 18.519531 3.609375 17.203125 4.394531 16 6 L 15 4 C 9 5 3 11 2 17 C 2 17 3 22 14 27 C 14 27 15 25.824219 15 23.589844 C 15 21.964844 13.660156 19.421875 16 18 C 17.507813 20.066406 19.835938 20 21 20 C 21 20 22.339844 22 24.71875 22 C 26.5625 22 27.449219 21.421875 27.449219 21.421875 C 27.449219 21.421875 27.980469 18.894531 28 18.660156 C 28 17.652344 27.898438 16.714844 26.527344 16 Z M 21.238281 13.960938 C 20.664063 13.960938 20.199219 13.496094 20.199219 12.921875 C 20.199219 12.34375 20.664063 11.878906 21.238281 11.878906 C 21.8125 11.878906 22.28125 12.34375 22.28125 12.921875 C 22.28125 13.496094 21.8125 13.960938 21.238281 13.960938 Z "/>
</g>
</svg>
